STARTFONT 2.1
COMMENT Created by fdbbdf
FONT Symbol10
SIZE 10 78 78
FONTBOUNDINGBOX 14 16 -1 -4
STARTPROPERTIES 4
Ownership "  Copyright (c) 1984 Adobe Systems, Inc.  /adobe/fonts/Times/Greek/fontvec.ps TG12.bits  TOTAL BITMAP BYTES 1790  GUIDELINES 0 0 0 0 6 9 -3 DONE  "
FONT_ASCENT 12
FONT_DESCENT 4
DEFAULT_CHAR 32
ENDPROPERTIES
CHARS 95
STARTCHAR similar
ENCODING -1 126
SWIDTH 0 0
DWIDTH 7 0
BBX 6 2 0 2
BITMAP
6400
9800
ENDCHAR
STARTCHAR braceright
ENCODING -1 125
SWIDTH 0 0
DWIDTH 6 0
BBX 5 12 1 -4
BITMAP
c000
2000
2000
2000
1000
0800
1000
2000
2000
2000
2000
c000
ENDCHAR
STARTCHAR bar
ENCODING -1 124
SWIDTH 0 0
DWIDTH 3 0
BBX 1 12 1 -4
BITMAP
8000
8000
8000
8000
8000
8000
8000
8000
8000
8000
8000
8000
ENDCHAR
STARTCHAR braceleft
ENCODING -1 123
SWIDTH 0 0
DWIDTH 6 0
BBX 5 12 0 -4
BITMAP
1800
2000
2000
2000
4000
8000
4000
2000
2000
2000
2000
1800
ENDCHAR
STARTCHAR zeta
ENCODING -1 122
SWIDTH 0 0
DWIDTH 6 0
BBX 5 13 1 -4
BITMAP
4000
9800
7000
4000
8000
8000
8000
8000
c000
7000
0800
4800
7000
ENDCHAR
STARTCHAR psi
ENCODING -1 121
SWIDTH 0 0
DWIDTH 9 0
BBX 9 9 0 -4
BITMAP
8880
4900
4900
4900
6b00
3e00
0800
0800
0800
ENDCHAR
STARTCHAR xi
ENCODING -1 120
SWIDTH 0 0
DWIDTH 6 0
BBX 5 14 1 -4
BITMAP
4000
8000
7000
c000
8000
f000
4000
8000
8000
c000
7000
0800
4800
7000
ENDCHAR
STARTCHAR omega
ENCODING -1 119
SWIDTH 0 0
DWIDTH 9 0
BBX 7 6 1 -1
BITMAP
4400
9200
9200
9200
9200
6c00
ENDCHAR
STARTCHAR omega1
ENCODING -1 118
SWIDTH 0 0
DWIDTH 9 0
BBX 8 7 0 -1
BITMAP
7f00
a200
4900
4900
4900
4900
3600
ENDCHAR
STARTCHAR upsilon
ENCODING -1 117
SWIDTH 0 0
DWIDTH 8 0
BBX 7 6 0 -1
BITMAP
6400
a200
2200
2200
2600
1c00
ENDCHAR
STARTCHAR tau
ENCODING -1 116
SWIDTH 0 0
DWIDTH 6 0
BBX 5 6 0 -1
BITMAP
7800
a000
2000
2000
2800
3000
ENDCHAR
STARTCHAR sigma
ENCODING -1 115
SWIDTH 0 0
DWIDTH 8 0
BBX 7 6 1 -1
BITMAP
7e00
9000
8800
8800
8800
7000
ENDCHAR
STARTCHAR rho
ENCODING -1 114
SWIDTH 0 0
DWIDTH 7 0
BBX 5 9 1 -4
BITMAP
7000
8800
8800
8800
c800
b000
8000
8000
8000
ENDCHAR
STARTCHAR theta
ENCODING -1 113
SWIDTH 0 0
DWIDTH 7 0
BBX 5 9 1 -1
BITMAP
7000
8800
8800
8800
f800
8800
8800
8800
7000
ENDCHAR
STARTCHAR pi
ENCODING -1 112
SWIDTH 0 0
DWIDTH 7 0
BBX 7 6 0 -1
BITMAP
7e00
a400
2400
2400
2600
6400
ENDCHAR
STARTCHAR omicron
ENCODING -1 111
SWIDTH 0 0
DWIDTH 7 0
BBX 5 6 1 -1
BITMAP
7000
8800
8800
8800
8800
7000
ENDCHAR
STARTCHAR nu
ENCODING -1 110
SWIDTH 0 0
DWIDTH 7 0
BBX 6 6 0 -1
BITMAP
cc00
4400
4400
2800
2800
3000
ENDCHAR
STARTCHAR mu
ENCODING -1 109
SWIDTH 0 0
DWIDTH 8 0
BBX 8 9 0 -4
BITMAP
4400
4400
4400
4400
4d00
7600
4000
4000
c000
ENDCHAR
STARTCHAR lambda
ENCODING -1 108
SWIDTH 0 0
DWIDTH 7 0
BBX 7 9 0 -1
BITMAP
6000
5000
1000
3000
2800
4800
4800
8a00
8600
ENDCHAR
STARTCHAR kappa
ENCODING -1 107
SWIDTH 0 0
DWIDTH 7 0
BBX 6 6 0 -1
BITMAP
4c00
d400
6000
7000
5800
4c00
ENDCHAR
STARTCHAR phi1
ENCODING -1 106
SWIDTH 0 0
DWIDTH 8 0
BBX 7 9 0 -4
BITMAP
1800
5400
9200
9200
5400
3800
1000
1000
1000
ENDCHAR
STARTCHAR iota
ENCODING -1 105
SWIDTH 0 0
DWIDTH 3 0
BBX 3 6 0 -1
BITMAP
c000
4000
4000
4000
4000
6000
ENDCHAR
STARTCHAR eta
ENCODING -1 104
SWIDTH 0 0
DWIDTH 8 0
BBX 7 9 0 -4
BITMAP
6c00
b200
2200
2200
2200
2200
0200
0200
0200
ENDCHAR
STARTCHAR gamma
ENCODING -1 103
SWIDTH 0 0
DWIDTH 7 0
BBX 6 9 0 -4
BITMAP
c400
a400
2400
2400
2800
1800
1000
3000
3000
ENDCHAR
STARTCHAR phi
ENCODING -1 102
SWIDTH 0 0
DWIDTH 8 0
BBX 7 11 0 -4
BITMAP
1000
1000
3800
5400
9200
9200
5400
3800
1000
1000
1000
ENDCHAR
STARTCHAR epsilon
ENCODING -1 101
SWIDTH 0 0
DWIDTH 6 0
BBX 4 6 1 -1
BITMAP
7000
9000
c000
8000
9000
7000
ENDCHAR
STARTCHAR delta
ENCODING -1 100
SWIDTH 0 0
DWIDTH 7 0
BBX 5 10 1 -1
BITMAP
7000
9800
8000
4000
7000
8800
8800
8800
8800
7000
ENDCHAR
STARTCHAR chi
ENCODING -1 99
SWIDTH 0 0
DWIDTH 7 0
BBX 7 9 0 -4
BITMAP
c600
ac00
2800
1800
3000
2800
6800
4a00
c600
ENDCHAR
STARTCHAR beta
ENCODING -1 98
SWIDTH 0 0
DWIDTH 7 0
BBX 5 13 1 -4
BITMAP
7000
8800
8800
8800
9000
8800
8800
8800
c800
b000
8000
8000
8000
ENDCHAR
STARTCHAR alpha
ENCODING -1 97
SWIDTH 0 0
DWIDTH 8 0
BBX 7 6 1 -1
BITMAP
7400
d400
8800
8800
d400
6600
ENDCHAR
STARTCHAR radicalex
ENCODING -1 96
SWIDTH 0 0
DWIDTH 6 0
BBX 7 1 5 10
BITMAP
fe00
ENDCHAR
STARTCHAR underscore
ENCODING -1 95
SWIDTH 0 0
DWIDTH 6 0
BBX 6 1 0 -4
BITMAP
fc00
ENDCHAR
STARTCHAR perpendicular
ENCODING -1 94
SWIDTH 0 0
DWIDTH 8 0
BBX 7 9 0 -1
BITMAP
1000
1000
1000
1000
1000
1000
1000
1000
fe00
ENDCHAR
STARTCHAR bracketright
ENCODING -1 93
SWIDTH 0 0
DWIDTH 5 0
BBX 3 12 1 -4
BITMAP
e000
2000
2000
2000
2000
2000
2000
2000
2000
2000
2000
e000
ENDCHAR
STARTCHAR therefore
ENCODING -1 92
SWIDTH 0 0
DWIDTH 9 0
BBX 7 6 1 -1
BITMAP
1000
1000
0000
0000
8200
8200
ENDCHAR
STARTCHAR bracketleft
ENCODING -1 91
SWIDTH 0 0
DWIDTH 5 0
BBX 3 12 1 -4
BITMAP
e000
8000
8000
8000
8000
8000
8000
8000
8000
8000
8000
e000
ENDCHAR
STARTCHAR Zeta
ENCODING -1 90
SWIDTH 0 0
DWIDTH 8 0
BBX 6 9 1 -1
BITMAP
fc00
8400
0800
1000
2000
2000
4000
8400
fc00
ENDCHAR
STARTCHAR Psi
ENCODING -1 89
SWIDTH 0 0
DWIDTH 10 0
BBX 9 9 0 -1
BITMAP
dd80
4900
4900
6b00
3e00
0800
0800
0800
1c00
ENDCHAR
STARTCHAR Xi
ENCODING -1 88
SWIDTH 0 0
DWIDTH 8 0
BBX 8 9 0 -1
BITMAP
7e00
4200
0000
2400
3c00
2400
0000
8100
ff00
ENDCHAR
STARTCHAR Omega
ENCODING -1 87
SWIDTH 0 0
DWIDTH 10 0
BBX 10 9 0 -1
BITMAP
1e00
3300
2100
4080
4080
4080
2100
9240
f3c0
ENDCHAR
STARTCHAR sigma1
ENCODING -1 86
SWIDTH 0 0
DWIDTH 7 0
BBX 5 9 1 -4
BITMAP
7800
8000
8000
8000
c000
7000
0800
4800
7000
ENDCHAR
STARTCHAR Upsilon
ENCODING -1 85
SWIDTH 0 0
DWIDTH 9 0
BBX 9 9 0 -1
BITMAP
e380
4100
2200
1400
0800
0800
0800
0800
1c00
ENDCHAR
STARTCHAR Tau
ENCODING -1 84
SWIDTH 0 0
DWIDTH 8 0
BBX 7 9 0 -1
BITMAP
fe00
9200
9200
1000
1000
1000
1000
1000
3800
ENDCHAR
STARTCHAR Sigma
ENCODING -1 83
SWIDTH 0 0
DWIDTH 7 0
BBX 7 9 0 -1
BITMAP
fc00
8400
c000
6000
3000
2000
4000
8200
fe00
ENDCHAR
STARTCHAR Rho
ENCODING -1 82
SWIDTH 0 0
DWIDTH 7 0
BBX 6 9 0 -1
BITMAP
f800
4c00
4400
4c00
7800
4000
4000
4000
e000
ENDCHAR
STARTCHAR Theta
ENCODING -1 81
SWIDTH 0 0
DWIDTH 9 0
BBX 8 9 0 -1
BITMAP
3c00
6600
4200
a500
bd00
a500
4200
6600
3c00
ENDCHAR
STARTCHAR Pi
ENCODING -1 80
SWIDTH 0 0
DWIDTH 9 0
BBX 8 9 0 -1
BITMAP
ff00
4200
4200
4200
4200
4200
4200
4200
e700
ENDCHAR
STARTCHAR Omicron
ENCODING -1 79
SWIDTH 0 0
DWIDTH 9 0
BBX 8 9 0 -1
BITMAP
3c00
6600
4200
8100
8100
8100
4200
6600
3c00
ENDCHAR
STARTCHAR Nu
ENCODING -1 78
SWIDTH 0 0
DWIDTH 9 0
BBX 8 9 0 -1
BITMAP
e700
6200
5200
5200
4a00
4a00
4600
4600
e200
ENDCHAR
STARTCHAR Mu
ENCODING -1 77
SWIDTH 0 0
DWIDTH 11 0
BBX 11 9 0 -1
BITMAP
e0e0
60c0
5140
5140
5140
4a40
4a40
4440
e4e0
ENDCHAR
STARTCHAR Lambda
ENCODING -1 76
SWIDTH 0 0
DWIDTH 9 0
BBX 9 9 0 -1
BITMAP
0800
0800
1400
1400
2200
2200
4100
4100
e380
ENDCHAR
STARTCHAR Kappa
ENCODING -1 75
SWIDTH 0 0
DWIDTH 9 0
BBX 8 9 0 -1
BITMAP
ee00
4400
4800
5000
7000
4800
4400
4200
e700
ENDCHAR
STARTCHAR theta1
ENCODING -1 74
SWIDTH 0 0
DWIDTH 8 0
BBX 8 9 0 -1
BITMAP
0400
0a00
0a00
6600
a300
2200
2200
2600
1c00
ENDCHAR
STARTCHAR Iota
ENCODING -1 73
SWIDTH 0 0
DWIDTH 4 0
BBX 3 9 0 -1
BITMAP
e000
4000
4000
4000
4000
4000
4000
4000
e000
ENDCHAR
STARTCHAR Eta
ENCODING -1 72
SWIDTH 0 0
DWIDTH 9 0
BBX 8 9 0 -1
BITMAP
e700
4200
4200
4200
7e00
4200
4200
4200
e700
ENDCHAR
STARTCHAR Gamma
ENCODING -1 71
SWIDTH 0 0
DWIDTH 8 0
BBX 7 9 0 -1
BITMAP
fe00
4200
4000
4000
4000
4000
4000
4000
e000
ENDCHAR
STARTCHAR Phi
ENCODING -1 70
SWIDTH 0 0
DWIDTH 10 0
BBX 9 9 0 -1
BITMAP
1c00
0800
7f00
c980
8880
c980
7f00
0800
1c00
ENDCHAR
STARTCHAR Epsilon
ENCODING -1 69
SWIDTH 0 0
DWIDTH 8 0
BBX 7 9 0 -1
BITMAP
fe00
4200
4000
4400
7c00
4400
4000
4200
fe00
ENDCHAR
STARTCHAR Delta
ENCODING -1 68
SWIDTH 0 0
DWIDTH 8 0
BBX 7 9 0 -1
BITMAP
1000
1000
2800
2800
4400
4400
4400
8200
fe00
ENDCHAR
STARTCHAR Chi
ENCODING -1 67
SWIDTH 0 0
DWIDTH 9 0
BBX 8 9 0 -1
BITMAP
e700
4200
2400
1800
1800
2400
2400
4200
e700
ENDCHAR
STARTCHAR Beta
ENCODING -1 66
SWIDTH 0 0
DWIDTH 8 0
BBX 7 9 0 -1
BITMAP
fc00
4600
4200
4600
7c00
4600
4200
4600
fc00
ENDCHAR
STARTCHAR Alpha
ENCODING -1 65
SWIDTH 0 0
DWIDTH 9 0
BBX 9 9 0 -1
BITMAP
0800
1c00
1400
1400
2200
3e00
2200
4100
e380
ENDCHAR
STARTCHAR congruent
ENCODING -1 64
SWIDTH 0 0
DWIDTH 7 0
BBX 5 6 1 -1
BITMAP
6800
b000
0000
f800
0000
f800
ENDCHAR
STARTCHAR question
ENCODING -1 63
SWIDTH 0 0
DWIDTH 6 0
BBX 5 9 1 -1
BITMAP
7000
8800
8800
0800
1000
2000
2000
0000
2000
ENDCHAR
STARTCHAR greater
ENCODING -1 62
SWIDTH 0 0
DWIDTH 7 0
BBX 6 5 0 0
BITMAP
c000
3000
0c00
3000
c000
ENDCHAR
STARTCHAR equal
ENCODING -1 61
SWIDTH 0 0
DWIDTH 7 0
BBX 5 3 1 1
BITMAP
f800
0000
f800
ENDCHAR
STARTCHAR less
ENCODING -1 60
SWIDTH 0 0
DWIDTH 7 0
BBX 6 5 0 0
BITMAP
0c00
3000
c000
3000
0c00
ENDCHAR
STARTCHAR semicolon
ENCODING -1 59
SWIDTH 0 0
DWIDTH 3 0
BBX 2 8 0 -3
BITMAP
4000
0000
0000
0000
0000
4000
4000
8000
ENDCHAR
STARTCHAR colon
ENCODING -1 58
SWIDTH 0 0
DWIDTH 3 0
BBX 1 6 1 -1
BITMAP
8000
0000
0000
0000
0000
8000
ENDCHAR
STARTCHAR nine
ENCODING -1 57
SWIDTH 0 0
DWIDTH 6 0
BBX 5 9 0 -1
BITMAP
7000
8800
8800
8800
7800
1000
1000
2000
4000
ENDCHAR
STARTCHAR eight
ENCODING -1 56
SWIDTH 0 0
DWIDTH 6 0
BBX 5 9 0 -1
BITMAP
7000
8800
8800
c800
7000
9800
8800
8800
7000
ENDCHAR
STARTCHAR seven
ENCODING -1 55
SWIDTH 0 0
DWIDTH 6 0
BBX 5 9 0 -1
BITMAP
f800
8800
1000
1000
2000
2000
4000
4000
4000
ENDCHAR
STARTCHAR six
ENCODING -1 54
SWIDTH 0 0
DWIDTH 6 0
BBX 5 9 0 -1
BITMAP
3800
4000
8000
b000
c800
8800
8800
8800
7000
ENDCHAR
STARTCHAR five
ENCODING -1 53
SWIDTH 0 0
DWIDTH 6 0
BBX 5 9 0 -1
BITMAP
7800
4000
8000
f000
1800
0800
0800
8800
f000
ENDCHAR
STARTCHAR four
ENCODING -1 52
SWIDTH 0 0
DWIDTH 6 0
BBX 6 9 0 -1
BITMAP
1800
2800
2800
4800
4800
8800
fc00
0800
0800
ENDCHAR
STARTCHAR three
ENCODING -1 51
SWIDTH 0 0
DWIDTH 6 0
BBX 5 9 0 -1
BITMAP
7000
8800
8800
0800
3000
0800
0800
8800
7000
ENDCHAR
STARTCHAR two
ENCODING -1 50
SWIDTH 0 0
DWIDTH 6 0
BBX 5 9 0 -1
BITMAP
7000
8800
8800
0800
1000
2000
4000
8800
f800
ENDCHAR
STARTCHAR one
ENCODING -1 49
SWIDTH 0 0
DWIDTH 6 0
BBX 3 9 1 -1
BITMAP
4000
c000
4000
4000
4000
4000
4000
4000
e000
ENDCHAR
STARTCHAR zero
ENCODING -1 48
SWIDTH 0 0
DWIDTH 6 0
BBX 5 9 0 -1
BITMAP
7000
8800
8800
8800
8800
8800
8800
8800
7000
ENDCHAR
STARTCHAR slash
ENCODING -1 47
SWIDTH 0 0
DWIDTH 3 0
BBX 3 9 0 -1
BITMAP
2000
2000
2000
4000
4000
4000
8000
8000
8000
ENDCHAR
STARTCHAR period
ENCODING -1 46
SWIDTH 0 0
DWIDTH 3 0
BBX 1 1 1 -1
BITMAP
8000
ENDCHAR
STARTCHAR minus
ENCODING -1 45
SWIDTH 0 0
DWIDTH 7 0
BBX 5 1 1 2
BITMAP
f800
ENDCHAR
STARTCHAR comma
ENCODING -1 44
SWIDTH 0 0
DWIDTH 3 0
BBX 2 3 1 -3
BITMAP
4000
4000
8000
ENDCHAR
STARTCHAR plus
ENCODING -1 43
SWIDTH 0 0
DWIDTH 7 0
BBX 5 6 1 -1
BITMAP
2000
2000
f800
2000
2000
2000
ENDCHAR
STARTCHAR asteriskmath
ENCODING -1 42
SWIDTH 0 0
DWIDTH 6 0
BBX 5 5 0 1
BITMAP
2000
a800
7000
a800
2000
ENDCHAR
STARTCHAR parenright
ENCODING -1 41
SWIDTH 0 0
DWIDTH 5 0
BBX 3 12 1 -4
BITMAP
8000
4000
4000
2000
2000
2000
2000
2000
2000
4000
4000
8000
ENDCHAR
STARTCHAR parenleft
ENCODING -1 40
SWIDTH 0 0
DWIDTH 5 0
BBX 3 12 1 -4
BITMAP
2000
4000
4000
8000
8000
8000
8000
8000
8000
4000
4000
2000
ENDCHAR
STARTCHAR suchthat
ENCODING -1 39
SWIDTH 0 0
DWIDTH 6 0
BBX 4 6 1 -1
BITMAP
e000
1000
f000
1000
3000
e000
ENDCHAR
STARTCHAR ampersand
ENCODING -1 38
SWIDTH 0 0
DWIDTH 10 0
BBX 9 9 1 -1
BITMAP
3000
4800
4800
3700
7200
9a00
8c00
8c80
7300
ENDCHAR
STARTCHAR percent
ENCODING -1 37
SWIDTH 0 0
DWIDTH 10 0
BBX 9 9 0 -1
BITMAP
7900
9700
9200
6400
0800
1300
1480
2480
6300
ENDCHAR
STARTCHAR existential
ENCODING -1 36
SWIDTH 0 0
DWIDTH 7 0
BBX 5 9 1 -1
BITMAP
f800
0800
0800
0800
f800
0800
0800
0800
f800
ENDCHAR
STARTCHAR numbersign
ENCODING -1 35
SWIDTH 0 0
DWIDTH 7 0
BBX 6 9 0 -1
BITMAP
2800
2800
2800
fc00
5000
f800
5000
5000
5000
ENDCHAR
STARTCHAR universal
ENCODING -1 34
SWIDTH 0 0
DWIDTH 9 0
BBX 9 9 0 -1
BITMAP
8080
4100
4100
3e00
2200
1400
1400
0800
0800
ENDCHAR
STARTCHAR exclam
ENCODING -1 33
SWIDTH 0 0
DWIDTH 4 0
BBX 1 9 1 -1
BITMAP
8000
8000
8000
8000
8000
8000
8000
0000
8000
ENDCHAR
STARTCHAR space
ENCODING -1 32
SWIDTH 0 0
DWIDTH 3 0
BBX 1 1 0 -1
BITMAP
0000
ENDCHAR
ENDFONT
